<?xml version="1.0" encoding="UTF-8" standalone="no"?>
<svg
   xmlns:dc="http://purl.org/dc/elements/1.1/"
   xmlns:cc="http://creativecommons.org/ns#"
   xmlns:rdf="http://www.w3.org/1999/02/22-rdf-syntax-ns#"
   xmlns:svg="http://www.w3.org/2000/svg"
   xmlns="http://www.w3.org/2000/svg"
   xmlns:sodipodi="http://sodipodi.sourceforge.net/DTD/sodipodi-0.dtd"
   xmlns:inkscape="http://www.inkscape.org/namespaces/inkscape"
   id="Capa_1"
   enable-background="new 0 0 512 512"
   height="512"
   viewBox="0 0 512 512"
   width="512"
   version="1.1"
   sodipodi:docname="quran.svg"
   inkscape:version="1.0.1 (3bc2e813f5, 2020-09-07)">
  <metadata
     id="metadata43">
    <rdf:RDF>
      <cc:Work
         rdf:about="">
        <dc:format>image/svg+xml</dc:format>
        <dc:type
           rdf:resource="http://purl.org/dc/dcmitype/StillImage" />
      </cc:Work>
    </rdf:RDF>
  </metadata>
  <defs
     id="defs41" />
  <sodipodi:namedview
     pagecolor="#ffffff"
     bordercolor="#666666"
     borderopacity="1"
     objecttolerance="10"
     gridtolerance="10"
     guidetolerance="10"
     inkscape:pageopacity="0"
     inkscape:pageshadow="2"
     inkscape:window-width="1366"
     inkscape:window-height="708"
     id="namedview39"
     showgrid="false"
     inkscape:zoom="0.88867187"
     inkscape:cx="-303.44904"
     inkscape:cy="94.544305"
     inkscape:window-x="0"
     inkscape:window-y="0"
     inkscape:window-maximized="1"
     inkscape:current-layer="g34" />
  <g
     id="g36">
    <path
       d="m442.08 200.606c-9.677 4.269-22.719 4.476-33.236 3.64-19.533-1.553-39.205-.303-58.376 3.75-78.139 16.519-94.468 52.463-94.468 52.463s-16.329-35.943-94.469-52.463c-19.171-4.053-38.842-5.302-58.376-3.75-10.516.836-23.558.629-33.236-3.64-2.022-.892-4.296.536-4.296 2.746v43.891l190.376 75 190.376-75v-43.891c.001-2.209-2.273-3.638-4.295-2.746z"
       fill="#fdf6ec"
       id="path2" />
    <path
       d="m382.29 231.222c-.828-4.059-4.791-6.677-8.848-5.849-2.708.553-61.96 12.921-109.942 44.787v-20.035c-5.6 6.16-7.5 10.34-7.5 10.34s-1.9-4.18-7.5-10.34v20.035c-47.982-31.866-107.235-44.234-109.942-44.787-4.057-.828-8.021 1.791-8.848 5.849-.828 4.059 1.791 8.02 5.85 8.848.671.137 66.339 13.836 112.94 48.409v30.815l7.5 2.95 7.5-2.95v-30.815c46.531-34.516 112.271-48.272 112.943-48.41 4.057-.829 6.675-4.789 5.847-8.847z"
       fill="#fddeb0"
       id="path4" />
    <path
       d="m446.377 203.35v30.905l-20.446 8.056v-35.526c0-.961-.317-1.789-.818-2.402 6.011-.44 11.941-1.554 16.971-3.772 2.013-.901 4.293.531 4.293 2.739z"
       fill="#fcead0"
       id="path6" />
    <path
       d="m256 309.26-210.116-82.777c-3.216-1.267-6.697 1.103-6.697 4.56v36.089l216.813 89.138 216.813-89.138v-36.089c0-3.456-3.481-5.827-6.697-4.56z"
       fill="#6ed5a1"
       id="path8" />
    <path
       d="m472.814 231.045v26.1l-20.446 8.404v-28.482c0-1.85-.818-3.415-2.034-4.365l15.785-6.216c3.209-1.269 6.695 1.103 6.695 4.559z"
       fill="#46cc8d"
       id="path10" />
    <path
       d="m507.717 449.774-500.617-205.819c-2.438-1.002-5.114.79-5.114 3.427v31.826c0 1.387.775 2.658 2.008 3.293l425.047 218.989c.823.424 1.775.525 2.668.282l28.105-7.634c.785-.213 1.618-.162 2.371.145l42.724 17.439c2.437.995 5.105-.798 5.105-3.43v-55.092c-.001-1.502-.907-2.855-2.297-3.426z"
       fill="#c68d7a"
       id="path12" />
    <path
       d="m510.016 453.195v19.138c-.337-.337-.736-.603-1.186-.787l-501.714-206.274c-2.443-1.002-5.132.787-5.132 3.435v-21.326c0-2.638 2.678-4.427 5.112-3.425l500.621 205.814c1.39.573 2.299 1.933 2.299 3.425z"
       fill="#bc7c63"
       id="path14" />
    <path
       d="m4.283 449.774 500.617-205.819c2.438-1.002 5.114.79 5.114 3.427v31.826c0 1.387-.775 2.658-2.008 3.293l-425.047 218.989c-.823.424-1.775.525-2.668.282l-28.105-7.634c-.785-.213-1.618-.162-2.371.145l-42.724 17.439c-2.437.995-5.105-.798-5.105-3.43v-55.092c.001-1.502.907-2.855 2.297-3.426z"
       fill="#935b44"
       id="path16" />
    <path
       d="m1.984 453.195v19.138c.337-.337.736-.603 1.186-.787l501.715-206.274c2.443-1.002 5.132.787 5.132 3.435v-21.326c0-2.638-2.678-4.427-5.112-3.425l-500.621 205.815c-1.391.572-2.3 1.932-2.3 3.424z"
       fill="#87523e"
       id="path18" />
    <circle
       cx="256"
       cy="376.041"
       fill="#753e2e"
       r="10.223"
       id="circle20" />
    <g
       fill="#6ed5a1"
       id="g34">
      <path
         id="path926"
         style="fill:#6ed5a1;fill-opacity:1;stroke:#6ed5a1;stroke-width:0.414625;stroke-opacity:1"
         d="m 153.86514,157.99923 -29.00517,37.82482 -20.87501,-0.3062 v 7.41845 l 32.15824,0.46898 28.9483,-37.7531 a 54.580134,44.650241 0 0 0 -11.22636,-7.65295 z" />
      <path
         d="m 338.62259,147.24408 c 4.164,0 7.539,0.62344 7.539,1.39263 v 15.97312 c 0,0.76918 -3.375,1.39262 -7.539,1.39262 -4.164,0 -7.539,-0.62344 -7.539,-1.39262 v -15.97312 c 0,-0.76919 3.375,-1.39263 7.539,-1.39263 z"
         id="path878"
         style="stroke-width:0.429793" />
      <path
         d="m 298.70611,143.9232 c 4.164,0 7.539,0.62344 7.539,1.39263 v 15.97312 c 0,0.76918 -3.375,1.39262 -7.539,1.39262 -4.164,0 -7.539,-0.62344 -7.539,-1.39262 v -15.97312 c 0,-0.76919 3.375,-1.39263 7.539,-1.39263 z"
         id="path910"
         style="stroke-width:0.429793" />
      <path
         d="m 271.4888,143.9232 c 4.164,0 7.539,0.62344 7.539,1.39263 v 15.97312 c 0,0.76918 -3.375,1.39262 -7.539,1.39262 -4.164,0 -7.539,-0.62344 -7.539,-1.39262 v -15.97312 c 0,-0.76919 3.375,-1.39263 7.539,-1.39263 z"
         id="path912"
         style="stroke-width:0.429793" />
      <path
         d="m 242.89732,143.9232 c 4.164,0 7.539,0.62344 7.539,1.39263 v 15.97312 c 0,0.76918 -3.375,1.39262 -7.539,1.39262 -4.164,0 -7.539,-0.62344 -7.539,-1.39262 v -15.97312 c 0,-0.76919 3.375,-1.39263 7.539,-1.39263 z"
         id="path914"
         style="stroke-width:0.429793" />
      <path
         d="m 199.10199,147.24408 c 4.164,0 7.539,0.62344 7.539,1.39263 v 15.97312 c 0,0.76918 -3.375,1.39262 -7.539,1.39262 -4.164,0 -7.539,-0.62344 -7.539,-1.39262 v -15.97312 c 0,-0.76919 3.375,-1.39263 7.539,-1.39263 z"
         id="path920"
         style="stroke-width:0.429793" />
      <path
         d="m 152.95227,160.33977 c 0,-4.164 5.30934,-7.539 11.8599,-7.539 h 136.03089 c 6.55056,0 11.85989,3.375 11.85989,7.539 0,4.164 -5.30933,7.539 -11.85989,7.539 H 164.81217 c -6.55056,0 -11.8599,-3.375 -11.8599,-7.539 z"
         id="path916"
         style="stroke-width:1.25424" />
      <circle
         cx="256.31985"
         cy="109.19671"
         r="10.052"
         id="circle22" />
      <circle
         cx="260.85385"
         cy="161.40585"
         transform="rotate(-10.894183)"
         id="ellipse24"
         r="10.052226"
         style="stroke-width:1.00002" />
      <path
         d="m 378.979,166.81669 c 4.164,0 7.539,-3.27928 7.539,-7.32518 V 75.47288 c 0,-4.045907 -3.375,-7.32519 -7.539,-7.32519 -4.164,0 -7.539,3.279283 -7.539,7.32519 v 84.01863 c 0,4.0459 3.375,7.32518 7.539,7.32518 z"
         id="path26"
         style="stroke-width:0.985718" />
      <path
         d="m 412.09549,169.69669 c 4.164,0 7.539,-3.375 7.539,-7.539 V 75.686693 c 0,-4.164 -3.375,-7.539 -7.539,-7.539 -4.164,0 -7.539,3.375 -7.539,7.539 v 86.470997 c 0,4.164 3.375,7.539 7.539,7.539 z"
         id="path868" />
      <path
         d="m 412.09549,166.81669 c 4.164,0 7.539,-3.27928 7.539,-7.32519 V 75.472882 c 0,-4.045906 -3.375,-7.325189 -7.539,-7.325189 -4.164,0 -7.539,3.279283 -7.539,7.325189 V 159.4915 c 0,4.04591 3.375,7.32519 7.539,7.32519 z"
         id="path872"
         style="stroke-width:0.985718" />
      <path
         d="m 337.54903,160.25406 c 0,-4.164 1.45088,-7.539 3.24095,-7.539 h 37.17312 c 1.79007,0 3.24095,3.375 3.24095,7.539 0,4.164 -1.45088,7.539 -3.24095,7.539 h -37.17312 c -1.79007,0 -3.24095,-3.375 -3.24095,-7.539 z"
         id="path874"
         style="stroke-width:0.655661" />
      <path
         d="m 298.36442,160.33977 c 0,-4.164 1.45088,-7.539 3.24095,-7.539 h 37.17312 c 1.79007,0 3.24095,3.375 3.24095,7.539 0,4.164 -1.45088,7.539 -3.24095,7.539 h -37.17312 c -1.79007,0 -3.24095,-3.375 -3.24095,-7.539 z"
         id="path876"
         style="stroke-width:0.655661" />
      <circle
         cx="296.71017"
         cy="250.05716"
         transform="rotate(-10.894183)"
         id="ellipse882"
         r="10.052226"
         style="stroke-width:1.00002" />
      <circle
         cx="249.90352"
         cy="138.04047"
         transform="rotate(-10.894183)"
         id="circle918"
         r="10.052226"
         style="stroke-width:1.00002" />
      <circle
         cx="183.93304"
         cy="189.47386"
         r="10.052"
         id="circle922" />
      <circle
         cx="174.59961"
         cy="226.55522"
         transform="rotate(-10.894183)"
         id="circle924"
         r="10.052226"
         style="stroke-width:1.00002" />
    </g>
  </g>
</svg>
